<svg width="84" height="84" viewBox="0 0 84 84" fill="none" xmlns="http://www.w3.org/2000/svg">
<rect width="84" height="84" fill="#1E1E1E"/>
<rect width="84" height="84" fill="#6D6D6D"/>
<rect width="56" height="56" fill="#D9D9D9"/>
<rect x="28" y="28" width="56" height="56" fill="#201F1F"/>
<path d="M58 25.3846V53.0769C58 53.4441 57.8468 53.7963 57.574 54.056C57.3012 54.3157 56.9312 54.4615 56.5455 54.4615H31.8182C31.0466 54.4615 30.3067 54.7533 29.7611 55.2726C29.2156 55.792 28.9091 56.4963 28.9091 57.2308H53.6364C54.0221 57.2308 54.3921 57.3766 54.6649 57.6363C54.9377 57.896 55.0909 58.2482 55.0909 58.6154C55.0909 58.9826 54.9377 59.3348 54.6649 59.5945C54.3921 59.8541 54.0221 60 53.6364 60H27.4545C27.0688 60 26.6988 59.8541 26.426 59.5945C26.1532 59.3348 26 58.9826 26 58.6154V29.5385C26 28.0696 26.613 26.6608 27.7041 25.6222C28.7952 24.5835 30.2751 24 31.8182 24H56.5455C56.9312 24 57.3012 24.1459 57.574 24.4055C57.8468 24.6652 58 25.0174 58 25.3846Z" fill="black"/>
<path d="M37.8 34.62V45H37.36V34.62H37.8ZM37.58 30.52C37.7133 30.52 37.8133 30.56 37.88 30.64C37.96 30.72 38 30.8133 38 30.92C38 31.0267 37.96 31.12 37.88 31.2C37.8133 31.2667 37.7133 31.3 37.58 31.3C37.46 31.3 37.36 31.2667 37.28 31.2C37.2133 31.12 37.18 31.0267 37.18 30.92C37.18 30.8133 37.2133 30.72 37.28 30.64C37.36 30.56 37.46 30.52 37.58 30.52ZM47.3963 37.78C48.3429 37.8333 49.1229 38.16 49.7363 38.76C50.3496 39.36 50.6563 40.2133 50.6563 41.32C50.6563 42.52 50.2563 43.4333 49.4563 44.06C48.6696 44.6867 47.5629 45 46.1363 45H42.6163V31.38H45.4362C46.8896 31.38 48.0029 31.6667 48.7763 32.24C49.5629 32.8 49.9563 33.6333 49.9563 34.74C49.9563 35.6067 49.7229 36.3 49.2563 36.82C48.8029 37.3267 48.1829 37.6467 47.3963 37.78ZM43.0763 31.8V37.6H46.4763C47.3829 37.6 48.1096 37.34 48.6563 36.82C49.2163 36.3 49.4963 35.6133 49.4963 34.76C49.4963 33.7733 49.1563 33.0333 48.4763 32.54C47.7963 32.0467 46.8029 31.8 45.4963 31.8H43.0763ZM46.1563 44.58C47.4229 44.58 48.4096 44.3133 49.1163 43.78C49.8363 43.2333 50.1963 42.4133 50.1963 41.32C50.1963 40.2533 49.8629 39.4333 49.1963 38.86C48.5429 38.2867 47.6696 38 46.5763 38H43.0763V44.58H46.1563Z" fill="white"/>
</svg>
