<svg width="38" height="32" viewBox="0 0 38 32" fill="none" xmlns="http://www.w3.org/2000/svg">
<g filter="url(#filter0_d_7_13)">

<path d="M32.8462 0H5.15385C4.84783 0 4.55434 0.126428 
4.33795 0.351472C4.12157 0.576516 4 0.88174 4 1.2V21.6C4 22.2365 4.24313 
22.847 4.67591 23.2971C5.10868 23.7471 5.69565 24 6.30769 24H31.6923C32.3043 
24 32.8913 23.7471 33.3241 23.2971C33.7569 22.847 34 22.2365 34 21.6V1.2C34 0.88174 
33.8784 0.576516 33.662 0.351472C33.4457 0.126428 33.1522 0 32.8462 0ZM14.7755 12L6.30769 20.0715V3.9285L14.7755
12ZM16.4832 13.6275L18.2139 15.285C18.4268 15.4882 18.7053 15.601 18.9942 15.601C19.2832 15.601 19.5616 15.4882 19.7745 
15.285L21.5053 13.6275L29.8707 21.6H8.12067L16.4832 13.6275ZM23.2245 12L31.6923 3.927V20.073L23.2245 12Z" fill="#4c4c5a"/>

</g>

<defs>
<filter id="filter0_d_7_13" x="0" y="0" width="38" height="32" filterUnits="userSpaceOnUse" color-interpolation-filters="sRGB">
<feFlood flood-opacity="0" result="BackgroundImageFix"/>
<feColorMatrix in="SourceAlpha" type="matrix" values="0 0 0 0 0 0 0 0 0 0 0 0 0 0 0 0 0 0 127 0" result="hardAlpha"/>
<feOffset dy="4"/>
<feGaussianBlur stdDeviation="2"/>
<feComposite in2="hardAlpha" operator="out"/>
<feColorMatrix type="matrix" values="0 0 0 0 0 0 0 0 0 0 0 0 0 0 0 0 0 0 0.25 0"/>
<feBlend mode="normal" in2="BackgroundImageFix" result="effect1_dropShadow_7_13"/>
<feBlend mode="normal" in="SourceGraphic" in2="effect1_dropShadow_7_13" result="shape"/>
</filter>
</defs>
</svg>
