<svg width="800" height="240" viewBox="0 0 800 240" fill="none" xmlns="http://www.w3.org/2000/svg">
<rect width="800" height="240" fill="#1E1E1E"/>
<rect width="800" height="240" fill="#0E0E14"/>
<rect x="200" y="70" width="400" height="50" fill="#202022"/>
<rect x="255" y="129" width="290" height="35" fill="#202022"/>
<rect x="363" y="173" width="75" height="25" fill="#202022"/>
<path d="M177.29 96V57.08H188.21V96H177.29ZM164.69 96V87.18H200.95V96H164.69ZM169.59 65.9V57.08H182.75V65.9H169.59ZM176.87 51.9V41.68H188.49V51.9H176.87ZM240.037 70.45C241.904 71.1033 243.444 71.9667 244.657 73.04C245.871 74.0667 246.781 75.3267 247.387 76.82C248.041 78.2667 248.367 79.9233 248.367 81.79C248.367 84.6833 247.621 87.2033 246.127 89.35C244.634 91.4967 242.534 93.1533 239.827 94.32C237.121 95.44 233.947 96 230.307 96H210.007V47.14H229.607C235.254 47.14 239.594 48.33 242.627 50.71C245.707 53.0433 247.247 56.0767 247.247 59.81C247.247 61.5367 246.944 63.0767 246.337 64.43C245.731 65.7367 244.891 66.9033 243.817 67.93C242.744 68.91 241.484 69.75 240.037 70.45ZM228.907 56.59H221.557V66.67H228.907C230.821 66.67 232.361 66.2033 233.527 65.27C234.741 64.29 235.347 63.0533 235.347 61.56C235.347 60.0667 234.741 58.8767 233.527 57.99C232.314 57.0567 230.774 56.59 228.907 56.59ZM221.557 86.55H229.957C231.917 86.55 233.481 86.0833 234.647 85.15C235.861 84.2167 236.467 82.9567 236.467 81.37C236.467 79.7367 235.884 78.4533 234.717 77.52C233.551 76.5867 231.941 76.12 229.887 76.12H221.557V86.55ZM273.805 96.84C269.651 96.84 266.081 96.0233 263.095 94.39C260.108 92.7567 257.798 90.4233 256.165 87.39C254.578 84.3567 253.785 80.74 253.785 76.54C253.785 72.2933 254.578 68.6767 256.165 65.69C257.798 62.6567 260.108 60.3233 263.095 58.69C266.081 57.0567 269.651 56.24 273.805 56.24C280.058 56.24 284.935 58.0367 288.435 61.63C291.981 65.2233 293.755 70.1933 293.755 76.54C293.755 80.74 292.961 84.3567 291.375 87.39C289.788 90.4233 287.501 92.7567 284.515 94.39C281.528 96.0233 277.958 96.84 273.805 96.84ZM273.805 88.02C276.605 88.02 278.798 86.9933 280.385 84.94C282.018 82.8867 282.835 80.0867 282.835 76.54C282.835 72.9467 282.018 70.1467 280.385 68.14C278.798 66.0867 276.605 65.06 273.805 65.06C270.958 65.06 268.718 66.0867 267.085 68.14C265.498 70.1467 264.705 72.9467 264.705 76.54C264.705 80.0867 265.498 82.8867 267.085 84.94C268.718 86.9933 270.958 88.02 273.805 88.02ZM319.332 96.84C315.179 96.84 311.609 96.0233 308.622 94.39C305.635 92.7567 303.325 90.4233 301.692 87.39C300.105 84.3567 299.312 80.74 299.312 76.54C299.312 72.2933 300.105 68.6767 301.692 65.69C303.325 62.6567 305.635 60.3233 308.622 58.69C311.609 57.0567 315.179 56.24 319.332 56.24C325.585 56.24 330.462 58.0367 333.962 61.63C337.509 65.2233 339.282 70.1933 339.282 76.54C339.282 80.74 338.489 84.3567 336.902 87.39C335.315 90.4233 333.029 92.7567 330.042 94.39C327.055 96.0233 323.485 96.84 319.332 96.84ZM319.332 88.02C322.132 88.02 324.325 86.9933 325.912 84.94C327.545 82.8867 328.362 80.0867 328.362 76.54C328.362 72.9467 327.545 70.1467 325.912 68.14C324.325 66.0867 322.132 65.06 319.332 65.06C316.485 65.06 314.245 66.0867 312.612 68.14C311.025 70.1467 310.232 72.9467 310.232 76.54C310.232 80.0867 311.025 82.8867 312.612 84.94C314.245 86.9933 316.485 88.02 319.332 88.02ZM345.119 96V44.2H356.039V60.86L355.339 72.55L362.759 63.52L368.919 57.08H382.779L356.039 83.68V96H345.119ZM370.739 96L358.349 73.6L368.359 69.68L383.409 96H370.739ZM411.367 96.84C407.727 96.84 404.53 96.2567 401.777 95.09C399.023 93.8767 396.877 92.1733 395.337 89.98C393.843 87.74 393.073 85.1033 393.027 82.07H403.177C403.083 84.2167 403.76 85.8967 405.207 87.11C406.7 88.3233 408.73 88.93 411.297 88.93C413.163 88.93 414.657 88.6267 415.777 88.02C416.943 87.3667 417.527 86.48 417.527 85.36C417.527 84.38 417.083 83.61 416.197 83.05C415.357 82.4433 414.237 81.9767 412.837 81.65C411.437 81.2767 409.897 80.9267 408.217 80.6C406.537 80.2267 404.833 79.7833 403.107 79.27C401.427 78.7567 399.887 78.08 398.487 77.24C397.087 76.3533 395.943 75.21 395.057 73.81C394.217 72.3633 393.797 70.5667 393.797 68.42C393.797 65.9467 394.497 63.8 395.897 61.98C397.297 60.16 399.233 58.76 401.707 57.78C404.227 56.7533 407.12 56.24 410.387 56.24C415.38 56.24 419.417 57.4067 422.497 59.74C425.623 62.0267 427.35 65.2467 427.677 69.4H417.597C417.503 67.6733 416.803 66.3667 415.497 65.48C414.19 64.5933 412.51 64.15 410.457 64.15C408.73 64.15 407.353 64.4533 406.327 65.06C405.3 65.6667 404.787 66.5767 404.787 67.79C404.787 68.77 405.207 69.54 406.047 70.1C406.933 70.6133 408.077 71.0333 409.477 71.36C410.877 71.6867 412.417 71.99 414.097 72.27C415.823 72.55 417.527 72.9467 419.207 73.46C420.887 73.9267 422.427 74.58 423.827 75.42C425.227 76.26 426.347 77.38 427.187 78.78C428.073 80.18 428.517 81.9767 428.517 84.17C428.517 88.1367 426.953 91.24 423.827 93.48C420.747 95.72 416.593 96.84 411.367 96.84ZM449.614 96V83.89H462.214V96H449.614ZM502.001 96.84C497.895 96.84 494.348 96.0233 491.361 94.39C488.421 92.7567 486.158 90.4233 484.571 87.39C483.031 84.3567 482.261 80.74 482.261 76.54C482.261 72.2467 483.078 68.5833 484.711 65.55C486.391 62.5167 488.725 60.2067 491.711 58.62C494.698 57.0333 498.221 56.24 502.281 56.24C505.828 56.24 508.955 56.87 511.661 58.13C514.415 59.39 516.585 61.1633 518.171 63.45C519.805 65.69 520.691 68.3733 520.831 71.5H509.911C509.538 69.3533 508.698 67.7667 507.391 66.74C506.131 65.6667 504.428 65.13 502.281 65.13C500.508 65.13 498.921 65.5733 497.521 66.46C496.168 67.3467 495.095 68.63 494.301 70.31C493.555 71.99 493.181 74.0667 493.181 76.54C493.181 80.2267 494.021 83.0733 495.701 85.08C497.428 87.0867 499.528 88.09 502.001 88.09C503.448 88.09 504.708 87.8333 505.781 87.32C506.901 86.8067 507.835 86.0833 508.581 85.15C509.328 84.17 509.841 83.0733 510.121 81.86H521.041C520.761 84.8933 519.781 87.53 518.101 89.77C516.421 92.01 514.205 93.76 511.451 95.02C508.698 96.2333 505.548 96.84 502.001 96.84ZM546.969 96.84C542.815 96.84 539.245 96.0233 536.259 94.39C533.272 92.7567 530.962 90.4233 529.329 87.39C527.742 84.3567 526.949 80.74 526.949 76.54C526.949 72.2933 527.742 68.6767 529.329 65.69C530.962 62.6567 533.272 60.3233 536.259 58.69C539.245 57.0567 542.815 56.24 546.969 56.24C553.222 56.24 558.099 58.0367 561.599 61.63C565.145 65.2233 566.919 70.1933 566.919 76.54C566.919 80.74 566.125 84.3567 564.539 87.39C562.952 90.4233 560.665 92.7567 557.679 94.39C554.692 96.0233 551.122 96.84 546.969 96.84ZM546.969 88.02C549.769 88.02 551.962 86.9933 553.549 84.94C555.182 82.8867 555.999 80.0867 555.999 76.54C555.999 72.9467 555.182 70.1467 553.549 68.14C551.962 66.0867 549.769 65.06 546.969 65.06C544.122 65.06 541.882 66.0867 540.249 68.14C538.662 70.1467 537.869 72.9467 537.869 76.54C537.869 80.0867 538.662 82.8867 540.249 84.94C541.882 86.9933 544.122 88.02 546.969 88.02ZM602.436 96V68.56C602.436 67.4867 602.296 66.6467 602.016 66.04C601.736 65.3867 601.199 65.06 600.406 65.06C599.379 65.06 598.446 65.83 597.606 67.37C596.813 68.8633 596.159 71.5 595.646 75.28L594.946 70.03C594.666 65.7833 595.366 62.4233 597.046 59.95C598.726 57.4767 600.989 56.24 603.836 56.24C606.263 56.24 608.269 57.1967 609.856 59.11C611.443 60.9767 612.236 63.73 612.236 67.37V96H602.436ZM572.756 96V57.08H582.276L582.486 64.29V96H572.756ZM587.596 96V68.56C587.596 67.3467 587.409 66.46 587.036 65.9C586.709 65.34 586.196 65.06 585.496 65.06C584.283 65.06 583.326 65.9 582.626 67.58C581.926 69.26 581.319 71.8267 580.806 75.28L580.876 69.61C580.689 66.9033 580.993 64.5467 581.786 62.54C582.579 60.5333 583.629 58.9933 584.936 57.92C586.289 56.8 587.736 56.24 589.276 56.24C591.749 56.24 593.709 57.2667 595.156 59.32C596.603 61.3267 597.326 63.9633 597.326 67.23V96H587.596Z" fill="white"/>
<path d="M278.63 153V144.555H275.57V142.53H284.165V144.555H281.105V153H278.63ZM291.266 153V147.87C291.266 147.43 291.156 147.08 290.936 146.82C290.716 146.56 290.426 146.43 290.066 146.43C289.656 146.43 289.276 146.57 288.926 146.85C288.586 147.12 288.226 147.59 287.846 148.26L287.516 146.295C287.896 145.635 288.356 145.17 288.896 144.9C289.436 144.62 289.986 144.48 290.546 144.48C291.186 144.48 291.731 144.615 292.181 144.885C292.641 145.155 292.991 145.535 293.231 146.025C293.481 146.505 293.606 147.07 293.606 147.72V153H291.266ZM285.701 153V141.885H288.041V153H285.701ZM299.462 153.18C298.562 153.18 297.787 153.005 297.137 152.655C296.497 152.305 296.002 151.805 295.652 151.155C295.302 150.505 295.127 149.73 295.127 148.83C295.127 147.92 295.302 147.14 295.652 146.49C296.002 145.84 296.507 145.345 297.167 145.005C297.837 144.655 298.642 144.48 299.582 144.48C301.052 144.48 302.117 144.9 302.777 145.74C303.447 146.57 303.727 147.715 303.617 149.175H296.987L297.002 147.57H301.232C301.202 147.19 301.032 146.885 300.722 146.655C300.412 146.415 300.027 146.295 299.567 146.295C298.847 146.295 298.317 146.52 297.977 146.97C297.637 147.42 297.467 148.075 297.467 148.935C297.467 149.365 297.542 149.76 297.692 150.12C297.842 150.48 298.062 150.77 298.352 150.99C298.652 151.2 299.022 151.305 299.462 151.305C299.932 151.305 300.327 151.19 300.647 150.96C300.977 150.73 301.177 150.44 301.247 150.09H303.587C303.487 151.04 303.067 151.795 302.327 152.355C301.597 152.905 300.642 153.18 299.462 153.18ZM320.533 153V147.87C320.533 147.43 320.423 147.08 320.203 146.82C319.983 146.56 319.693 146.43 319.333 146.43C318.923 146.43 318.543 146.57 318.193 146.85C317.853 147.12 317.493 147.59 317.113 148.26L316.783 146.295C317.163 145.635 317.623 145.17 318.163 144.9C318.703 144.62 319.253 144.48 319.813 144.48C320.453 144.48 320.998 144.615 321.448 144.885C321.908 145.155 322.258 145.535 322.498 146.025C322.748 146.505 322.873 147.07 322.873 147.72V153H320.533ZM314.968 153V141.885H317.308V153H314.968ZM328.654 153.18C327.764 153.18 326.999 153.005 326.359 152.655C325.719 152.305 325.224 151.805 324.874 151.155C324.534 150.505 324.364 149.73 324.364 148.83C324.364 147.92 324.534 147.145 324.874 146.505C325.224 145.855 325.719 145.355 326.359 145.005C326.999 144.655 327.764 144.48 328.654 144.48C329.994 144.48 331.039 144.865 331.789 145.635C332.549 146.405 332.929 147.47 332.929 148.83C332.929 149.73 332.759 150.505 332.419 151.155C332.079 151.805 331.589 152.305 330.949 152.655C330.309 153.005 329.544 153.18 328.654 153.18ZM328.654 151.29C329.254 151.29 329.724 151.07 330.064 150.63C330.414 150.19 330.589 149.59 330.589 148.83C330.589 148.06 330.414 147.46 330.064 147.03C329.724 146.59 329.254 146.37 328.654 146.37C328.044 146.37 327.564 146.59 327.214 147.03C326.874 147.46 326.704 148.06 326.704 148.83C326.704 149.59 326.874 150.19 327.214 150.63C327.564 151.07 328.044 151.29 328.654 151.29ZM340.54 153V147.12C340.54 146.89 340.51 146.71 340.45 146.58C340.39 146.44 340.275 146.37 340.105 146.37C339.885 146.37 339.685 146.535 339.505 146.865C339.335 147.185 339.195 147.75 339.085 148.56L338.935 147.435C338.875 146.525 339.025 145.805 339.385 145.275C339.745 144.745 340.23 144.48 340.84 144.48C341.36 144.48 341.79 144.685 342.13 145.095C342.47 145.495 342.64 146.085 342.64 146.865V153H340.54ZM334.18 153V144.66H336.22L336.265 146.205V153H334.18ZM337.36 153V147.12C337.36 146.86 337.32 146.67 337.24 146.55C337.17 146.43 337.06 146.37 336.91 146.37C336.65 146.37 336.445 146.55 336.295 146.91C336.145 147.27 336.015 147.82 335.905 148.56L335.92 147.345C335.88 146.765 335.945 146.26 336.115 145.83C336.285 145.4 336.51 145.07 336.79 144.84C337.08 144.6 337.39 144.48 337.72 144.48C338.25 144.48 338.67 144.7 338.98 145.14C339.29 145.57 339.445 146.135 339.445 146.835V153H337.36ZM348.241 153.18C347.341 153.18 346.566 153.005 345.916 152.655C345.276 152.305 344.781 151.805 344.431 151.155C344.081 150.505 343.906 149.73 343.906 148.83C343.906 147.92 344.081 147.14 344.431 146.49C344.781 145.84 345.286 145.345 345.946 145.005C346.616 144.655 347.421 144.48 348.361 144.48C349.831 144.48 350.896 144.9 351.556 145.74C352.226 146.57 352.506 147.715 352.396 149.175H345.766L345.781 147.57H350.011C349.981 147.19 349.811 146.885 349.501 146.655C349.191 146.415 348.806 146.295 348.346 146.295C347.626 146.295 347.096 146.52 346.756 146.97C346.416 147.42 346.246 148.075 346.246 148.935C346.246 149.365 346.321 149.76 346.471 150.12C346.621 150.48 346.841 150.77 347.131 150.99C347.431 151.2 347.801 151.305 348.241 151.305C348.711 151.305 349.106 151.19 349.426 150.96C349.756 150.73 349.956 150.44 350.026 150.09H352.366C352.266 151.04 351.846 151.795 351.106 152.355C350.376 152.905 349.421 153.18 348.241 153.18ZM367.678 153.18C366.788 153.18 366.023 153.005 365.383 152.655C364.743 152.305 364.248 151.805 363.898 151.155C363.558 150.505 363.388 149.73 363.388 148.83C363.388 147.92 363.558 147.145 363.898 146.505C364.248 145.855 364.743 145.355 365.383 145.005C366.023 144.655 366.788 144.48 367.678 144.48C369.018 144.48 370.063 144.865 370.813 145.635C371.573 146.405 371.953 147.47 371.953 148.83C371.953 149.73 371.783 150.505 371.443 151.155C371.103 151.805 370.613 152.305 369.973 152.655C369.333 153.005 368.568 153.18 367.678 153.18ZM367.678 151.29C368.278 151.29 368.748 151.07 369.088 150.63C369.438 150.19 369.613 149.59 369.613 148.83C369.613 148.06 369.438 147.46 369.088 147.03C368.748 146.59 368.278 146.37 367.678 146.37C367.068 146.37 366.588 146.59 366.238 147.03C365.898 147.46 365.728 148.06 365.728 148.83C365.728 149.59 365.898 150.19 366.238 150.63C366.588 151.07 367.068 151.29 367.678 151.29ZM375.964 153V143.835C375.964 143.245 376.094 142.73 376.354 142.29C376.614 141.84 376.969 141.49 377.419 141.24C377.869 140.98 378.374 140.85 378.934 140.85H381.529V142.74H379.864C379.584 142.74 379.324 142.765 379.084 142.815C378.844 142.865 378.654 142.97 378.514 143.13C378.374 143.28 378.304 143.515 378.304 143.835V153H375.964ZM374.314 146.55V144.66H380.329V146.55H374.314ZM373.579 153V151.11H381.349V153H373.579ZM397.62 153C397.06 153 396.565 152.875 396.135 152.625C395.715 152.365 395.39 152.01 395.16 151.56C394.93 151.1 394.815 150.58 394.815 150V143.265L397.155 142.215V150C397.155 150.26 397.19 150.475 397.26 150.645C397.34 150.805 397.48 150.925 397.68 151.005C397.89 151.075 398.18 151.11 398.55 151.11H400.665V153H397.62ZM393.165 146.55V144.66H399.18V146.55H393.165ZM408.336 153V147.87C408.336 147.43 408.226 147.08 408.006 146.82C407.786 146.56 407.496 146.43 407.136 146.43C406.726 146.43 406.346 146.57 405.996 146.85C405.656 147.12 405.296 147.59 404.916 148.26L404.586 146.295C404.966 145.635 405.426 145.17 405.966 144.9C406.506 144.62 407.056 144.48 407.616 144.48C408.256 144.48 408.801 144.615 409.251 144.885C409.711 145.155 410.061 145.535 410.301 146.025C410.551 146.505 410.676 147.07 410.676 147.72V153H408.336ZM402.771 153V141.885H405.111V153H402.771ZM416.532 153.18C415.632 153.18 414.857 153.005 414.207 152.655C413.567 152.305 413.072 151.805 412.722 151.155C412.372 150.505 412.197 149.73 412.197 148.83C412.197 147.92 412.372 147.14 412.722 146.49C413.072 145.84 413.577 145.345 414.237 145.005C414.907 144.655 415.712 144.48 416.652 144.48C418.122 144.48 419.187 144.9 419.847 145.74C420.517 146.57 420.797 147.715 420.687 149.175H414.057L414.072 147.57H418.302C418.272 147.19 418.102 146.885 417.792 146.655C417.482 146.415 417.097 146.295 416.637 146.295C415.917 146.295 415.387 146.52 415.047 146.97C414.707 147.42 414.537 148.075 414.537 148.935C414.537 149.365 414.612 149.76 414.762 150.12C414.912 150.48 415.132 150.77 415.422 150.99C415.722 151.2 416.092 151.305 416.532 151.305C417.002 151.305 417.397 151.19 417.717 150.96C418.047 150.73 418.247 150.44 418.317 150.09H420.657C420.557 151.04 420.137 151.795 419.397 152.355C418.667 152.905 417.712 153.18 416.532 153.18ZM436.044 153.18C435.144 153.18 434.369 153.005 433.719 152.655C433.079 152.305 432.584 151.805 432.234 151.155C431.884 150.505 431.709 149.73 431.709 148.83C431.709 147.92 431.884 147.14 432.234 146.49C432.584 145.84 433.089 145.345 433.749 145.005C434.419 144.655 435.224 144.48 436.164 144.48C437.634 144.48 438.699 144.9 439.359 145.74C440.029 146.57 440.309 147.715 440.199 149.175H433.569L433.584 147.57H437.814C437.784 147.19 437.614 146.885 437.304 146.655C436.994 146.415 436.609 146.295 436.149 146.295C435.429 146.295 434.899 146.52 434.559 146.97C434.219 147.42 434.049 148.075 434.049 148.935C434.049 149.365 434.124 149.76 434.274 150.12C434.424 150.48 434.644 150.77 434.934 150.99C435.234 151.2 435.604 151.305 436.044 151.305C436.514 151.305 436.909 151.19 437.229 150.96C437.559 150.73 437.759 150.44 437.829 150.09H440.169C440.069 151.04 439.649 151.795 438.909 152.355C438.179 152.905 437.224 153.18 436.044 153.18ZM443.205 149.4V147.375H448.23V149.4H443.205ZM456.17 144.48C456.9 144.48 457.54 144.675 458.09 145.065C458.65 145.445 459.09 145.965 459.41 146.625C459.73 147.285 459.89 148.02 459.89 148.83C459.89 149.63 459.73 150.36 459.41 151.02C459.09 151.68 458.65 152.205 458.09 152.595C457.54 152.985 456.9 153.18 456.17 153.18C455.68 153.18 455.225 153.09 454.805 152.91C454.385 152.72 454.03 152.47 453.74 152.16L453.695 153H451.445V141.9H453.77V145.455C454.06 145.155 454.41 144.92 454.82 144.75C455.24 144.57 455.69 144.48 456.17 144.48ZM455.57 151.26C455.96 151.26 456.3 151.15 456.59 150.93C456.89 150.71 457.125 150.42 457.295 150.06C457.465 149.69 457.55 149.28 457.55 148.83C457.55 148.37 457.465 147.96 457.295 147.6C457.125 147.23 456.89 146.94 456.59 146.73C456.3 146.51 455.96 146.4 455.57 146.4C455.15 146.4 454.78 146.53 454.46 146.79C454.14 147.04 453.91 147.385 453.77 147.825V149.82C453.91 150.25 454.14 150.6 454.46 150.87C454.78 151.13 455.15 151.26 455.57 151.26ZM465.236 153.18C464.346 153.18 463.581 153.005 462.941 152.655C462.301 152.305 461.806 151.805 461.456 151.155C461.116 150.505 460.946 149.73 460.946 148.83C460.946 147.92 461.116 147.145 461.456 146.505C461.806 145.855 462.301 145.355 462.941 145.005C463.581 144.655 464.346 144.48 465.236 144.48C466.576 144.48 467.621 144.865 468.371 145.635C469.131 146.405 469.511 147.47 469.511 148.83C469.511 149.73 469.341 150.505 469.001 151.155C468.661 151.805 468.171 152.305 467.531 152.655C466.891 153.005 466.126 153.18 465.236 153.18ZM465.236 151.29C465.836 151.29 466.306 151.07 466.646 150.63C466.996 150.19 467.171 149.59 467.171 148.83C467.171 148.06 466.996 147.46 466.646 147.03C466.306 146.59 465.836 146.37 465.236 146.37C464.626 146.37 464.146 146.59 463.796 147.03C463.456 147.46 463.286 148.06 463.286 148.83C463.286 149.59 463.456 150.19 463.796 150.63C464.146 151.07 464.626 151.29 465.236 151.29ZM474.992 153.18C474.102 153.18 473.337 153.005 472.697 152.655C472.057 152.305 471.562 151.805 471.212 151.155C470.872 150.505 470.702 149.73 470.702 148.83C470.702 147.92 470.872 147.145 471.212 146.505C471.562 145.855 472.057 145.355 472.697 145.005C473.337 144.655 474.102 144.48 474.992 144.48C476.332 144.48 477.377 144.865 478.127 145.635C478.887 146.405 479.267 147.47 479.267 148.83C479.267 149.73 479.097 150.505 478.757 151.155C478.417 151.805 477.927 152.305 477.287 152.655C476.647 153.005 475.882 153.18 474.992 153.18ZM474.992 151.29C475.592 151.29 476.062 151.07 476.402 150.63C476.752 150.19 476.927 149.59 476.927 148.83C476.927 148.06 476.752 147.46 476.402 147.03C476.062 146.59 475.592 146.37 474.992 146.37C474.382 146.37 473.902 146.59 473.552 147.03C473.212 147.46 473.042 148.06 473.042 148.83C473.042 149.59 473.212 150.19 473.552 150.63C473.902 151.07 474.382 151.29 474.992 151.29ZM480.518 153V141.9H482.858V145.47L482.708 147.975L484.298 146.04L485.618 144.66H488.588L482.858 150.36V153H480.518ZM486.008 153L483.353 148.2L485.498 147.36L488.723 153H486.008ZM494.714 153.18C493.934 153.18 493.249 153.055 492.659 152.805C492.069 152.545 491.609 152.18 491.279 151.71C490.959 151.23 490.794 150.665 490.784 150.015H492.959C492.939 150.475 493.084 150.835 493.394 151.095C493.714 151.355 494.149 151.485 494.699 151.485C495.099 151.485 495.419 151.42 495.659 151.29C495.909 151.15 496.034 150.96 496.034 150.72C496.034 150.51 495.939 150.345 495.749 150.225C495.569 150.095 495.329 149.995 495.029 149.925C494.729 149.845 494.399 149.77 494.039 149.7C493.679 149.62 493.314 149.525 492.944 149.415C492.584 149.305 492.254 149.16 491.954 148.98C491.654 148.79 491.409 148.545 491.219 148.245C491.039 147.935 490.949 147.55 490.949 147.09C490.949 146.56 491.099 146.1 491.399 145.71C491.699 145.32 492.114 145.02 492.644 144.81C493.184 144.59 493.804 144.48 494.504 144.48C495.574 144.48 496.439 144.73 497.099 145.23C497.769 145.72 498.139 146.41 498.209 147.3H496.049C496.029 146.93 495.879 146.65 495.599 146.46C495.319 146.27 494.959 146.175 494.519 146.175C494.149 146.175 493.854 146.24 493.634 146.37C493.414 146.5 493.304 146.695 493.304 146.955C493.304 147.165 493.394 147.33 493.574 147.45C493.764 147.56 494.009 147.65 494.309 147.72C494.609 147.79 494.939 147.855 495.299 147.915C495.669 147.975 496.034 148.06 496.394 148.17C496.754 148.27 497.084 148.41 497.384 148.59C497.684 148.77 497.924 149.01 498.104 149.31C498.294 149.61 498.389 149.995 498.389 150.465C498.389 151.315 498.054 151.98 497.384 152.46C496.724 152.94 495.834 153.18 494.714 153.18Z" fill="white"/>
</svg>
