<svg width="78" height="78" viewBox="0 0 78 78" fill="none" xmlns="http://www.w3.org/2000/svg">
<path d="M57 0H21C15.4323 0.00595585 10.0943 2.22036 6.15734 6.15734C2.22036 10.0943 0.00595585 15.4323 0 21V57C0.00595585 62.5677 2.22036 67.9057 6.15734 71.8427C10.0943 75.7796 15.4323 77.994 21 78H57C62.5677 77.994 67.9057 75.7796 71.8427 71.8427C75.7796 67.9057 77.994 62.5677 78 57V21C77.994 15.4323 75.7796 10.0943 71.8427 6.15734C67.9057 2.22036 62.5677 0.00595585 57 0ZM39 57C35.4399 57 31.9598 55.9443 28.9997 53.9665C26.0397 51.9886 23.7325 49.1774 22.3702 45.8883C21.0078 42.5992 20.6513 38.98 21.3459 35.4884C22.0404 31.9967 23.7547 28.7894 26.2721 26.2721C28.7894 23.7547 31.9967 22.0404 35.4884 21.3459C38.98 20.6513 42.5992 21.0078 45.8883 22.3702C49.1774 23.7325 51.9886 26.0397 53.9665 28.9997C55.9443 31.9598 57 35.4399 57 39C56.995 43.7724 55.097 48.3479 51.7224 51.7224C48.3479 55.097 43.7724 56.995 39 57ZM61.5 21C60.61 21 59.74 20.7361 58.9999 20.2416C58.2599 19.7471 57.6831 19.0443 57.3425 18.2221C57.002 17.3998 56.9128 16.495 57.0865 15.6221C57.2601 14.7492 57.6887 13.9474 58.318 13.318C58.9474 12.6887 59.7492 12.2601 60.6221 12.0865C61.495 11.9128 62.3998 12.0019 63.2221 12.3425C64.0443 12.6831 64.7471 13.2599 65.2416 13.9999C65.7361 14.74 66 15.61 66 16.5C66 17.6935 65.5259 18.8381 64.682 19.682C63.8381 20.5259 62.6935 21 61.5 21ZM51 39C51 41.3734 50.2962 43.6935 48.9776 45.6668C47.6591 47.6402 45.7849 49.1783 43.5922 50.0866C41.3995 50.9948 38.9867 51.2324 36.6589 50.7694C34.3311 50.3064 32.1929 49.1635 30.5147 47.4853C28.8365 45.807 27.6936 43.6689 27.2306 41.3411C26.7676 39.0133 27.0052 36.6005 27.9134 34.4078C28.8217 32.2151 30.3598 30.3409 32.3332 29.0224C34.3065 27.7038 36.6266 27 39 27C42.1826 27 45.2348 28.2643 47.4853 30.5147C49.7357 32.7652 51 35.8174 51 39Z" fill="#4c4c5a"/>
</svg>
