<svg width="28" height="28" viewBox="0 0 28 28" fill="none" xmlns="http://www.w3.org/2000/svg">
<path d="M27.9249 2.53705C27.9249 2.53705 27.9249 2.54955 27.9249 2.5558L20.6499 26.5483C20.5398 26.938 20.3131 27.2847 20.0003 27.5418C19.6875 27.799 19.3035 27.9544 18.8999 27.987C18.8424 27.992 18.7849 27.9945 18.7274 27.9945C18.3491 27.9957 17.9784 27.8887 17.6591 27.686C17.3397 27.4833 17.0849 27.1935 16.9249 26.8508L12.3749 17.5133C12.3294 17.4197 12.3142 17.3143 12.3314 17.2116C12.3487 17.109 12.3975 17.0143 12.4711 16.9408L19.7111 9.7008C19.8908 9.51174 19.9894 9.25998 19.9861 8.99922C19.9827 8.73846 19.8777 8.48932 19.6933 8.30492C19.5089 8.12052 19.2597 8.01545 18.999 8.01211C18.7382 8.00877 18.4865 8.10743 18.2974 8.28705L11.0536 15.527C10.9801 15.6007 10.8854 15.6495 10.7828 15.6668C10.6802 15.684 10.5747 15.6688 10.4811 15.6233L1.1349 11.0745C0.769422 10.8992 0.465853 10.617 0.264419 10.2652C0.062984 9.91342 -0.0268062 9.50875 0.00694683 9.1048C0.0406998 8.70084 0.196402 8.31668 0.453421 8.00322C0.71044 7.68976 1.05664 7.4618 1.44615 7.34955L25.4386 0.074547H25.4574C25.799 -0.0214262 26.16 -0.0247907 26.5033 0.0647985C26.8467 0.154388 27.16 0.333705 27.4111 0.584353C27.6623 0.835001 27.8422 1.14795 27.9325 1.49111C28.0228 1.83426 28.0202 2.19525 27.9249 2.53705Z" fill="#FFFFFE"/>
</svg>
