<svg width="350" height="350" viewBox="0 0 350 350" fill="none" xmlns="http://www.w3.org/2000/svg">
<rect width="350" height="350" fill="#1E1E1E"/>
<rect width="350" height="350" fill="#D9D9D9"/>
<path d="M185.135 120.964C185.271 120.456 185.506 119.98 185.826 119.563C186.145 119.147 186.544 118.797 186.999 118.534C187.454 118.271 187.957 118.1 188.478 118.032C188.999 117.963 189.528 117.998 190.036 118.134C197.451 120.069 204.216 123.945 209.635 129.364C215.054 134.783 218.931 141.549 220.866 148.964C221.002 149.472 221.037 150.001 220.968 150.522C220.899 151.043 220.729 151.546 220.466 152.001C220.203 152.456 219.853 152.855 219.436 153.174C219.019 153.494 218.543 153.729 218.036 153.864C217.698 153.953 217.35 153.998 217.001 153.999C216.12 154 215.264 153.709 214.565 153.173C213.866 152.637 213.364 151.885 213.136 151.034C211.559 144.98 208.395 139.456 203.972 135.031C199.548 130.607 194.025 127.442 187.97 125.864C187.462 125.729 186.986 125.495 186.568 125.175C186.151 124.856 185.8 124.457 185.537 124.002C185.274 123.547 185.103 123.044 185.034 122.523C184.965 122.002 184.999 121.472 185.135 120.964ZM183.97 141.864C190.866 143.704 195.296 148.139 197.136 155.034C197.363 155.885 197.866 156.637 198.565 157.173C199.264 157.709 200.12 158 201.001 157.999C201.35 157.999 201.698 157.953 202.036 157.864C202.543 157.729 203.019 157.494 203.436 157.174C203.853 156.855 204.203 156.456 204.466 156.001C204.729 155.546 204.899 155.043 204.968 154.522C205.036 154.001 205.002 153.472 204.866 152.964C202.306 143.384 195.616 136.694 186.035 134.134C185.01 133.86 183.919 134.005 183 134.536C182.082 135.067 181.412 135.942 181.138 136.967C180.864 137.992 181.009 139.084 181.54 140.002C182.071 140.921 182.945 141.59 183.97 141.864ZM220.186 181.23L196.631 170.675L196.566 170.645C195.343 170.122 194.009 169.912 192.684 170.034C191.36 170.156 190.087 170.607 188.981 171.345C188.85 171.431 188.725 171.524 188.606 171.625L176.435 182C168.725 178.255 160.765 170.355 157.02 162.744L167.41 150.389C167.51 150.264 167.605 150.139 167.695 150.004C168.417 148.901 168.856 147.636 168.971 146.322C169.086 145.008 168.875 143.687 168.355 142.474V142.414L157.77 118.819C157.084 117.235 155.904 115.916 154.406 115.058C152.908 114.2 151.173 113.85 149.46 114.059C142.685 114.951 136.466 118.278 131.965 123.42C127.463 128.561 124.988 135.166 125 141.999C125 181.7 157.3 214 197.001 214C203.834 214.012 210.439 211.536 215.58 207.035C220.722 202.534 224.049 196.315 224.941 189.54C225.15 187.827 224.801 186.092 223.944 184.595C223.087 183.097 221.768 181.917 220.186 181.23Z" fill="#222223"/>
</svg>
