<svg width="800" height="240" viewBox="0 0 800 240" fill="none" xmlns="http://www.w3.org/2000/svg">
<rect width="800" height="240" fill="#1E1E1E"/>
<rect width="800" height="240" fill="#0E0E14"/>
<rect x="200" y="70" width="400" height="50" fill="#202022"/>
<rect x="255" y="129" width="290" height="35" fill="#202022"/>
<rect x="363" y="173" width="75" height="25" fill="#202022"/>
<path d="M177.29 140V101.08H188.21V140H177.29ZM164.69 140V131.18H200.95V140H164.69ZM169.59 109.9V101.08H182.75V109.9H169.59ZM176.87 95.9V85.68H188.49V95.9H176.87ZM240.037 114.45C241.904 115.103 243.444 115.967 244.657 117.04C245.871 118.067 246.781 119.327 247.387 120.82C248.041 122.267 248.367 123.923 248.367 125.79C248.367 128.683 247.621 131.203 246.127 133.35C244.634 135.497 242.534 137.153 239.827 138.32C237.121 139.44 233.947 140 230.307 140H210.007V91.14H229.607C235.254 91.14 239.594 92.33 242.627 94.71C245.707 97.0433 247.247 100.077 247.247 103.81C247.247 105.537 246.944 107.077 246.337 108.43C245.731 109.737 244.891 110.903 243.817 111.93C242.744 112.91 241.484 113.75 240.037 114.45ZM228.907 100.59H221.557V110.67H228.907C230.821 110.67 232.361 110.203 233.527 109.27C234.741 108.29 235.347 107.053 235.347 105.56C235.347 104.067 234.741 102.877 233.527 101.99C232.314 101.057 230.774 100.59 228.907 100.59ZM221.557 130.55H229.957C231.917 130.55 233.481 130.083 234.647 129.15C235.861 128.217 236.467 126.957 236.467 125.37C236.467 123.737 235.884 122.453 234.717 121.52C233.551 120.587 231.941 120.12 229.887 120.12H221.557V130.55ZM273.805 140.84C269.651 140.84 266.081 140.023 263.095 138.39C260.108 136.757 257.798 134.423 256.165 131.39C254.578 128.357 253.785 124.74 253.785 120.54C253.785 116.293 254.578 112.677 256.165 109.69C257.798 106.657 260.108 104.323 263.095 102.69C266.081 101.057 269.651 100.24 273.805 100.24C280.058 100.24 284.935 102.037 288.435 105.63C291.981 109.223 293.755 114.193 293.755 120.54C293.755 124.74 292.961 128.357 291.375 131.39C289.788 134.423 287.501 136.757 284.515 138.39C281.528 140.023 277.958 140.84 273.805 140.84ZM273.805 132.02C276.605 132.02 278.798 130.993 280.385 128.94C282.018 126.887 282.835 124.087 282.835 120.54C282.835 116.947 282.018 114.147 280.385 112.14C278.798 110.087 276.605 109.06 273.805 109.06C270.958 109.06 268.718 110.087 267.085 112.14C265.498 114.147 264.705 116.947 264.705 120.54C264.705 124.087 265.498 126.887 267.085 128.94C268.718 130.993 270.958 132.02 273.805 132.02ZM319.332 140.84C315.179 140.84 311.609 140.023 308.622 138.39C305.635 136.757 303.325 134.423 301.692 131.39C300.105 128.357 299.312 124.74 299.312 120.54C299.312 116.293 300.105 112.677 301.692 109.69C303.325 106.657 305.635 104.323 308.622 102.69C311.609 101.057 315.179 100.24 319.332 100.24C325.585 100.24 330.462 102.037 333.962 105.63C337.509 109.223 339.282 114.193 339.282 120.54C339.282 124.74 338.489 128.357 336.902 131.39C335.315 134.423 333.029 136.757 330.042 138.39C327.055 140.023 323.485 140.84 319.332 140.84ZM319.332 132.02C322.132 132.02 324.325 130.993 325.912 128.94C327.545 126.887 328.362 124.087 328.362 120.54C328.362 116.947 327.545 114.147 325.912 112.14C324.325 110.087 322.132 109.06 319.332 109.06C316.485 109.06 314.245 110.087 312.612 112.14C311.025 114.147 310.232 116.947 310.232 120.54C310.232 124.087 311.025 126.887 312.612 128.94C314.245 130.993 316.485 132.02 319.332 132.02ZM345.119 140V88.2H356.039V104.86L355.339 116.55L362.759 107.52L368.919 101.08H382.779L356.039 127.68V140H345.119ZM370.739 140L358.349 117.6L368.359 113.68L383.409 140H370.739ZM411.367 140.84C407.727 140.84 404.53 140.257 401.777 139.09C399.023 137.877 396.877 136.173 395.337 133.98C393.843 131.74 393.073 129.103 393.027 126.07H403.177C403.083 128.217 403.76 129.897 405.207 131.11C406.7 132.323 408.73 132.93 411.297 132.93C413.163 132.93 414.657 132.627 415.777 132.02C416.943 131.367 417.527 130.48 417.527 129.36C417.527 128.38 417.083 127.61 416.197 127.05C415.357 126.443 414.237 125.977 412.837 125.65C411.437 125.277 409.897 124.927 408.217 124.6C406.537 124.227 404.833 123.783 403.107 123.27C401.427 122.757 399.887 122.08 398.487 121.24C397.087 120.353 395.943 119.21 395.057 117.81C394.217 116.363 393.797 114.567 393.797 112.42C393.797 109.947 394.497 107.8 395.897 105.98C397.297 104.16 399.233 102.76 401.707 101.78C404.227 100.753 407.12 100.24 410.387 100.24C415.38 100.24 419.417 101.407 422.497 103.74C425.623 106.027 427.35 109.247 427.677 113.4H417.597C417.503 111.673 416.803 110.367 415.497 109.48C414.19 108.593 412.51 108.15 410.457 108.15C408.73 108.15 407.353 108.453 406.327 109.06C405.3 109.667 404.787 110.577 404.787 111.79C404.787 112.77 405.207 113.54 406.047 114.1C406.933 114.613 408.077 115.033 409.477 115.36C410.877 115.687 412.417 115.99 414.097 116.27C415.823 116.55 417.527 116.947 419.207 117.46C420.887 117.927 422.427 118.58 423.827 119.42C425.227 120.26 426.347 121.38 427.187 122.78C428.073 124.18 428.517 125.977 428.517 128.17C428.517 132.137 426.953 135.24 423.827 137.48C420.747 139.72 416.593 140.84 411.367 140.84ZM449.614 140V127.89H462.214V140H449.614ZM502.001 140.84C497.895 140.84 494.348 140.023 491.361 138.39C488.421 136.757 486.158 134.423 484.571 131.39C483.031 128.357 482.261 124.74 482.261 120.54C482.261 116.247 483.078 112.583 484.711 109.55C486.391 106.517 488.725 104.207 491.711 102.62C494.698 101.033 498.221 100.24 502.281 100.24C505.828 100.24 508.955 100.87 511.661 102.13C514.415 103.39 516.585 105.163 518.171 107.45C519.805 109.69 520.691 112.373 520.831 115.5H509.911C509.538 113.353 508.698 111.767 507.391 110.74C506.131 109.667 504.428 109.13 502.281 109.13C500.508 109.13 498.921 109.573 497.521 110.46C496.168 111.347 495.095 112.63 494.301 114.31C493.555 115.99 493.181 118.067 493.181 120.54C493.181 124.227 494.021 127.073 495.701 129.08C497.428 131.087 499.528 132.09 502.001 132.09C503.448 132.09 504.708 131.833 505.781 131.32C506.901 130.807 507.835 130.083 508.581 129.15C509.328 128.17 509.841 127.073 510.121 125.86H521.041C520.761 128.893 519.781 131.53 518.101 133.77C516.421 136.01 514.205 137.76 511.451 139.02C508.698 140.233 505.548 140.84 502.001 140.84ZM546.969 140.84C542.815 140.84 539.245 140.023 536.259 138.39C533.272 136.757 530.962 134.423 529.329 131.39C527.742 128.357 526.949 124.74 526.949 120.54C526.949 116.293 527.742 112.677 529.329 109.69C530.962 106.657 533.272 104.323 536.259 102.69C539.245 101.057 542.815 100.24 546.969 100.24C553.222 100.24 558.099 102.037 561.599 105.63C565.145 109.223 566.919 114.193 566.919 120.54C566.919 124.74 566.125 128.357 564.539 131.39C562.952 134.423 560.665 136.757 557.679 138.39C554.692 140.023 551.122 140.84 546.969 140.84ZM546.969 132.02C549.769 132.02 551.962 130.993 553.549 128.94C555.182 126.887 555.999 124.087 555.999 120.54C555.999 116.947 555.182 114.147 553.549 112.14C551.962 110.087 549.769 109.06 546.969 109.06C544.122 109.06 541.882 110.087 540.249 112.14C538.662 114.147 537.869 116.947 537.869 120.54C537.869 124.087 538.662 126.887 540.249 128.94C541.882 130.993 544.122 132.02 546.969 132.02ZM602.436 140V112.56C602.436 111.487 602.296 110.647 602.016 110.04C601.736 109.387 601.199 109.06 600.406 109.06C599.379 109.06 598.446 109.83 597.606 111.37C596.813 112.863 596.159 115.5 595.646 119.28L594.946 114.03C594.666 109.783 595.366 106.423 597.046 103.95C598.726 101.477 600.989 100.24 603.836 100.24C606.263 100.24 608.269 101.197 609.856 103.11C611.443 104.977 612.236 107.73 612.236 111.37V140H602.436ZM572.756 140V101.08H582.276L582.486 108.29V140H572.756ZM587.596 140V112.56C587.596 111.347 587.409 110.46 587.036 109.9C586.709 109.34 586.196 109.06 585.496 109.06C584.283 109.06 583.326 109.9 582.626 111.58C581.926 113.26 581.319 115.827 580.806 119.28L580.876 113.61C580.689 110.903 580.993 108.547 581.786 106.54C582.579 104.533 583.629 102.993 584.936 101.92C586.289 100.8 587.736 100.24 589.276 100.24C591.749 100.24 593.709 101.267 595.156 103.32C596.603 105.327 597.326 107.963 597.326 111.23V140H587.596Z" fill="white"/>
</svg>
