<svg width="96" height="96" viewBox="0 0 96 96" fill="none" xmlns="http://www.w3.org/2000/svg">
<path d="M66.4596 40.6344C66.4596 45.7452 64.9438 50.7412 62.1038 54.9907C59.2639 59.2401 55.2274 62.5522 50.5048 64.508C45.7822 66.4638 40.5856 66.9755 35.5721 65.9785C30.5586 64.9814 25.9534 62.5203 22.3388 58.9064C18.7243 55.2926 16.2628 50.6882 15.2655 45.6756C14.2683 40.663 14.7801 35.4674 16.7363 30.7456C18.6924 26.0239 22.0051 21.9881 26.2553 19.1487C30.5056 16.3093 35.5025 14.7938 40.6142 14.7938C47.4689 14.7938 54.0427 17.5163 58.8897 22.3623C63.7366 27.2084 66.4596 33.781 66.4596 40.6344ZM94.9171 94.9273C94.5742 95.2706 94.167 95.5428 93.7188 95.7286C93.2706 95.9144 92.7901 96.01 92.3049 96.01C91.8197 96.01 91.3392 95.9144 90.891 95.7286C90.4428 95.5428 90.0356 95.2706 89.6927 94.9273L66.5888 71.8231C58.5542 78.5061 48.2519 81.8351 37.8251 81.1175C27.3982 80.3999 17.6494 75.691 10.6064 67.9703C3.56339 60.2496 -0.231543 50.1114 0.0109443 39.6646C0.253432 29.2177 4.51467 19.2665 11.9083 11.8807C19.3019 4.495 29.2588 0.243335 39.7077 0.0101248C50.1566 -0.223086 60.2933 3.58011 68.0092 10.6286C75.7251 17.6771 80.4263 27.4283 81.1348 37.8539C81.8433 48.2795 78.5046 58.5769 71.8133 66.6042L94.9171 89.7038C95.2604 90.0467 95.5328 90.4538 95.7186 90.902C95.9044 91.3501 96 91.8305 96 92.3156C96 92.8007 95.9044 93.2811 95.7186 93.7292C95.5328 94.1774 95.2604 94.5845 94.9171 94.9273ZM40.6142 73.858C47.1865 73.858 53.6111 71.9095 59.0757 68.2588C64.5403 64.6082 68.7994 59.4193 71.3145 53.3485C73.8296 47.2777 74.4876 40.5975 73.2055 34.1528C71.9233 27.708 68.7585 21.7881 64.1112 17.1417C59.4639 12.4953 53.543 9.33108 47.097 8.04913C40.6511 6.76719 33.9697 7.42513 27.8978 9.93975C21.8258 12.4544 16.6361 16.7127 12.9847 22.1763C9.33341 27.6399 7.38452 34.0634 7.38452 40.6344C7.3943 49.4428 10.8984 57.8877 17.1281 64.1162C23.3577 70.3448 31.8042 73.8482 40.6142 73.858Z" fill="#4C4C5A"/>
</svg>
